<?xml version="1.0" encoding="UTF-8" standalone="no"?>
<svg
   xmlns:dc="http://purl.org/dc/elements/1.1/"
   xmlns:cc="http://creativecommons.org/ns#"
   xmlns:rdf="http://www.w3.org/1999/02/22-rdf-syntax-ns#"
   xmlns:svg="http://www.w3.org/2000/svg"
   xmlns="http://www.w3.org/2000/svg"
   xmlns:xlink="http://www.w3.org/1999/xlink"
   width="1205.941"
   height="1205.941"
   viewBox="0 0 319.07188 319.07191"
   version="1.1"
   id="svg22">
  <metadata
     id="metadata80">
    <rdf:RDF>
      <cc:Work
         rdf:about="">
        <dc:format>image/svg+xml</dc:format>
        <dc:type
           rdf:resource="http://purl.org/dc/dcmitype/StillImage" />
        <dc:title></dc:title>
      </cc:Work>
    </rdf:RDF>
  </metadata>
  <defs
     id="defs16" />
  <image
     xlink:href="mars-with-planets.jpg"
     style="opacity:0.9"
     width="319.0719"
     height="319.0719"
     preserveAspectRatio="none"
     id="image1071"
     x="0"
     y="0" />
  <g
     id="layer1"
     transform="matrix(0.41742317,0,0,0.41742317,45.676291,33.524443)" />
  <g
     id="g1329"
     transform="translate(0.04243016,1.0776031)">
    <path
       transform="matrix(0,0.40729856,-0.40729856,0,139.3451,23.686449)"
       class="earth steel-2"
       style="fill:none;stroke:#000000;stroke-width:0.18862587"
       d="m 117.36547,98.5625 -21.0804,36.51233 H 54.124262 L 33.043858,98.5625 54.124262,62.050169 l 42.160808,0 z"
       id="A1" />
    <path
       class="ocean steel-2"
       transform="matrix(0,0.40729856,-0.40729856,0,183.95936,-2.0716054)"
       style="fill:none;stroke:#000000;stroke-width:0.18862587"
       d="m 180.60669,135.07483 -21.08041,36.51233 h -42.16081 l -21.080405,-36.51233 21.080405,-36.512335 42.16081,0 z"
       id="A2" />
    <path
       class="earth"
       transform="matrix(0,0.40729856,-0.40729856,0,228.57363,23.686449)"
       style="fill:none;stroke:#000000;stroke-width:0.18862587"
       d="M 117.36548,171.58717 96.285072,208.09951 H 54.12426 l -21.080406,-36.51234 21.080406,-36.51233 42.160812,0 z"
       id="A3" />
    <path
       class="ocean card-1"
       transform="matrix(0,0.40729856,-0.40729856,0,258.31646,23.686449)"
       style="fill:none;stroke:#000000;stroke-width:0.18862587"
       d="M 117.36548,171.58717 96.285072,208.09951 H 54.12426 l -21.080406,-36.51234 21.080406,-36.51233 42.160812,0 z"
       id="A4" />
    <path
       class="ocean"
       transform="matrix(0,0.40729856,-0.40729856,0,288.05929,23.686449)"
       style="fill:none;stroke:#000000;stroke-width:0.18862587"
       d="M 117.36548,171.58717 96.285072,208.09951 H 54.12426 l -21.080406,-36.51234 21.080406,-36.51233 42.160812,0 z"
       id="A5" />
    <path
       class="earth"
       transform="matrix(0,0.40729856,-0.40729856,0,124.47368,49.444501)"
       style="fill:none;stroke:#000000;stroke-width:0.18862587"
       d="m 117.36547,98.5625 -21.0804,36.51233 H 54.124262 L 33.043858,98.5625 54.124262,62.050169 l 42.160808,0 z"
       id="B1" />
    <path
       class="earth steel-1 tharsis-tholus"
       transform="matrix(0,0.40729856,-0.40729856,0,169.08794,23.686449)"
       style="fill:none;stroke:#000000;stroke-width:0.18862587"
       d="m 180.60669,135.07483 -21.08041,36.51233 h -42.16081 l -21.080405,-36.51233 21.080405,-36.512335 42.16081,0 z"
       id="B2" />
    <path
       class="earth"
       transform="matrix(0,0.40729856,-0.40729856,0,213.70221,49.444506)"
       style="fill:none;stroke:#000000;stroke-width:0.18862587"
       d="M 117.36548,171.58717 96.285072,208.09951 H 54.12426 l -21.080406,-36.51234 21.080406,-36.51233 42.160812,0 z"
       id="B3" />
    <path
       class="earth"
       transform="matrix(0,0.40729856,-0.40729856,0,243.44504,49.444506)"
       style="fill:none;stroke:#000000;stroke-width:0.18862587"
       d="M 117.36548,171.58717 96.285072,208.09951 H 54.12426 l -21.080406,-36.51234 21.080406,-36.51233 42.160812,0 z"
       id="B4" />
    <path
       class="earth"
       transform="matrix(0,0.40729856,-0.40729856,0,273.18789,49.444503)"
       style="fill:none;stroke:#000000;stroke-width:0.18862587"
       d="M 117.36548,171.58717 96.285072,208.09951 H 54.12426 l -21.080406,-36.51234 21.080406,-36.51233 42.160812,0 z"
       id="B5" />
    <path
       class="ocean card-2"
       transform="matrix(0,0.40729856,-0.40729856,0,302.93073,49.444506)"
       style="fill:none;stroke:#000000;stroke-width:0.18862587"
       d="M 117.36548,171.58717 96.285072,208.09951 H 54.12426 l -21.080406,-36.51234 21.080406,-36.51233 42.160812,0 z"
       id="B6" />
    <path
       class="earth card-1 ascraeus-mons"
       transform="matrix(0,0.40729856,-0.40729856,0,109.60227,75.202562)"
       style="fill:none;stroke:#000000;stroke-width:0.18862587"
       d="m 117.36547,98.5625 -21.0804,36.51233 H 54.124262 L 33.043858,98.5625 54.124262,62.050169 l 42.160808,0 z"
       id="C1" />
    <path
       class="earth"
       transform="matrix(0,0.40729856,-0.40729856,0,154.21653,49.444509)"
       style="fill:none;stroke:#000000;stroke-width:0.18862587"
       d="m 180.60669,135.07483 -21.08041,36.51233 h -42.16081 l -21.080405,-36.51233 21.080405,-36.512335 42.16081,0 z"
       id="C2" />
    <path
       class="earth"
       transform="matrix(0,0.40729856,-0.40729856,0,198.83079,75.202564)"
       style="fill:none;stroke:#000000;stroke-width:0.18862587"
       d="M 117.36548,171.58717 96.285072,208.09951 H 54.12426 l -21.080406,-36.51234 21.080406,-36.51233 42.160812,0 z"
       id="C3" />
    <path
       class="earth"
       transform="matrix(0,0.40729856,-0.40729856,0,228.57364,75.202564)"
       style="fill:none;stroke:#000000;stroke-width:0.18862587"
       d="M 117.36548,171.58717 96.285072,208.09951 H 54.12426 l -21.080406,-36.51234 21.080406,-36.51233 42.160812,0 z"
       id="C4" />
    <path
       class="earth"
       transform="matrix(0,0.40729856,-0.40729856,0,258.31647,75.202559)"
       style="fill:none;stroke:#000000;stroke-width:0.18862587"
       d="M 117.36548,171.58717 96.285072,208.09951 H 54.12426 l -21.080406,-36.51234 21.080406,-36.51233 42.160812,0 z"
       id="C5" />
    <path
       class="earth"
       transform="matrix(0,0.40729856,-0.40729856,0,288.05932,75.202572)"
       style="fill:none;stroke:#000000;stroke-width:0.18862587"
       d="M 117.36548,171.58717 96.285072,208.09951 H 54.12426 l -21.080406,-36.51234 21.080406,-36.51233 42.160812,0 z"
       id="C6" />
    <path
       class="earth steel-1"
       transform="matrix(0,0.40729856,-0.40729856,0,317.80215,75.202564)"
       style="fill:none;stroke:#000000;stroke-width:0.18862587"
       d="M 117.36548,171.58717 96.285072,208.09951 H 54.12426 l -21.080406,-36.51234 21.080406,-36.51233 42.160812,0 z"
       id="C7" />
    <path
       class="earth plant-1 titanium-1 pavonis-mons"
       transform="matrix(0,0.40729856,-0.40729856,0,94.730849,100.96062)"
       style="fill:none;stroke:#000000;stroke-width:0.18862587"
       d="m 117.36547,98.5625 -21.0804,36.51233 H 54.124262 L 33.043858,98.5625 54.124262,62.050169 l 42.160808,0 z"
       id="D1" />
    <path
       class="earth plant-1"
       transform="matrix(0,0.40729856,-0.40729856,0,139.3451,75.202564)"
       style="fill:none;stroke:#000000;stroke-width:0.18862587"
       d="m 180.60669,135.07483 -21.08041,36.51233 h -42.16081 l -21.080405,-36.51233 21.080405,-36.512335 42.16081,0 z"
       id="D2" />
    <path
       class="earth plant-1"
       transform="matrix(0,0.40729856,-0.40729856,0,183.95938,100.96062)"
       style="fill:none;stroke:#000000;stroke-width:0.18862587"
       d="M 117.36548,171.58717 96.285072,208.09951 H 54.12426 l -21.080406,-36.51234 21.080406,-36.51233 42.160812,0 z"
       id="D3" />
    <path
       class="earth plant-1"
       transform="matrix(0,0.40729856,-0.40729856,0,213.70221,100.96062)"
       style="fill:none;stroke:#000000;stroke-width:0.18862587"
       d="M 117.36548,171.58717 96.285072,208.09951 H 54.12426 l -21.080406,-36.51234 21.080406,-36.51233 42.160812,0 z"
       id="D4" />
    <path
       class="earth plant-2"
       transform="matrix(0,0.40729856,-0.40729856,0,243.44504,100.96062)"
       style="fill:none;stroke:#000000;stroke-width:0.18862587"
       d="M 117.36548,171.58717 96.285072,208.09951 H 54.12426 l -21.080406,-36.51234 21.080406,-36.51233 42.160812,0 z"
       id="D5" />
    <path
       class="earth plant-1"
       transform="matrix(0,0.40729856,-0.40729856,0,243.44504,100.96062)"
       style="fill:none;stroke:#000000;stroke-width:0.18862587"
       d="m 117.36547,98.5625 -21.0804,36.51233 H 54.124262 L 33.043858,98.5625 54.124262,62.050169 l 42.160808,0 z"
       id="D6" />
    <path
       class="earth plant-1"
       transform="matrix(0,0.40729856,-0.40729856,0,288.05929,75.202564)"
       style="fill:none;stroke:#000000;stroke-width:0.18862587"
       d="m 180.60669,135.07483 -21.08041,36.51233 h -42.16081 l -21.080405,-36.51233 21.080405,-36.512335 42.16081,0 z"
       id="D7" />
    <path
       class="ocean plant-2"
       transform="matrix(0,0.40729856,-0.40729856,0,332.67358,100.96062)"
       style="fill:none;stroke:#000000;stroke-width:0.18862587"
       d="M 117.36548,171.58717 96.285072,208.09951 H 54.12426 l -21.080406,-36.51234 21.080406,-36.51233 42.160812,0 z"
       id="D8" />
    <path
       class="earth plant-2 arsia-mons"
       transform="matrix(0,0.40729856,-0.40729856,0,79.859429,126.71868)"
       style="fill:none;stroke:#000000;stroke-width:0.18862587"
       d="m 117.36547,98.5625 -21.0804,36.51233 H 54.124262 L 33.043858,98.5625 54.124262,62.050169 l 42.160808,0 z"
       id="E1" />
    <path
       class="earth plant-2"
       transform="matrix(0,0.40729856,-0.40729856,0,124.47368,100.96062)"
       style="fill:none;stroke:#000000;stroke-width:0.18862587"
       d="m 180.60669,135.07483 -21.08041,36.51233 h -42.16081 l -21.080405,-36.51233 21.080405,-36.512335 42.16081,0 z"
       id="E2" />
    <path
       class="earth plant-1 noctis-city"
       transform="matrix(0,0.40729856,-0.40729856,0,169.08795,126.71868)"
       style="fill:none;stroke:#000000;stroke-width:0.18862587"
       d="M 117.36548,171.58717 96.285072,208.09951 H 54.12426 l -21.080406,-36.51234 21.080406,-36.51233 42.160812,0 z"
       id="E3" />
    <path
       class="ocean plant-2"
       transform="matrix(0,0.40729856,-0.40729856,0,198.83078,126.71868)"
       style="fill:none;stroke:#000000;stroke-width:0.18862587"
       d="M 117.36548,171.58717 96.285072,208.09951 H 54.12426 l -21.080406,-36.51234 21.080406,-36.51233 42.160812,0 z"
       id="E4" />
    <path
       class="ocean plant-2"
       transform="matrix(0,0.40729856,-0.40729856,0,228.57363,126.71868)"
       style="fill:none;stroke:#000000;stroke-width:0.18862587"
       d="M 117.36548,171.58717 96.285072,208.09951 H 54.12426 l -21.080406,-36.51234 21.080406,-36.51233 42.160812,0 z"
       id="E5" />
    <path
       class="ocean plant-2"
       transform="matrix(0,0.40729856,-0.40729856,0,228.57363,126.71868)"
       style="fill:none;stroke:#000000;stroke-width:0.18862587"
       d="m 117.36547,98.5625 -21.0804,36.51233 H 54.124262 L 33.043858,98.5625 54.124262,62.050169 l 42.160808,0 z"
       id="E6" />
    <path
       class="earth plant-2"
       transform="matrix(0,0.40729856,-0.40729856,0,273.18789,100.96063)"
       style="fill:none;stroke:#000000;stroke-width:0.18862587"
       d="m 180.60669,135.07483 -21.08041,36.51233 h -42.16081 l -21.080405,-36.51233 21.080405,-36.512335 42.16081,0 z"
       id="E7" />
    <path
       class="earth plant-2"
       transform="matrix(0,0.40729856,-0.40729856,0,317.80215,126.71869)"
       style="fill:none;stroke:#000000;stroke-width:0.18862587"
       d="M 117.36548,171.58717 96.285072,208.09951 H 54.12426 l -21.080406,-36.51234 21.080406,-36.51233 42.160812,0 z"
       id="E8" />
    <path
       class="earth plant-2"
       transform="matrix(0,0.40729856,-0.40729856,0,347.54499,126.71869)"
       style="fill:none;stroke:#000000;stroke-width:0.18862587"
       d="M 117.36548,171.58717 96.285072,208.09951 H 54.12426 l -21.080406,-36.51234 21.080406,-36.51233 42.160812,0 z"
       id="E9" />
    <path
       class="earth plant-1"
       transform="matrix(0,0.40729856,-0.40729856,0,94.730839,152.47674)"
       style="fill:none;stroke:#000000;stroke-width:0.18862587"
       d="m 117.36547,98.5625 -21.0804,36.51233 H 54.124262 L 33.043858,98.5625 54.124262,62.050169 l 42.160808,0 z"
       id="F1" />
    <path
       class="earth plant-2"
       transform="matrix(0,0.40729856,-0.40729856,0,139.3451,126.71868)"
       style="fill:none;stroke:#000000;stroke-width:0.18862587"
       d="m 180.60669,135.07483 -21.08041,36.51233 h -42.16081 l -21.080405,-36.51233 21.080405,-36.512335 42.16081,0 z"
       id="F2" />
    <path
       class="earth plant-1"
       transform="matrix(0,0.40729856,-0.40729856,0,183.95937,152.47674)"
       style="fill:none;stroke:#000000;stroke-width:0.18862587"
       d="M 117.36548,171.58717 96.285072,208.09951 H 54.12426 l -21.080406,-36.51234 21.080406,-36.51233 42.160812,0 z"
       id="F3" />
    <path
       class="earth plant-1"
       transform="matrix(0,0.40729856,-0.40729856,0,213.7022,152.47674)"
       style="fill:none;stroke:#000000;stroke-width:0.18862587"
       d="M 117.36548,171.58717 96.285072,208.09951 H 54.12426 l -21.080406,-36.51234 21.080406,-36.51233 42.160812,0 z"
       id="F4" />
    <path
       class="earth plant-1"
       transform="matrix(0,0.40729856,-0.40729856,0,243.44504,152.47674)"
       style="fill:none;stroke:#000000;stroke-width:0.18862587"
       d="M 117.36548,171.58717 96.285072,208.09951 H 54.12426 l -21.080406,-36.51234 21.080406,-36.51233 42.160812,0 z"
       id="F5" />
    <path
       class="ocean plant-1"
       transform="matrix(0,0.40729856,-0.40729856,0,243.44504,152.47674)"
       style="fill:none;stroke:#000000;stroke-width:0.18862587"
       d="m 117.36547,98.5625 -21.0804,36.51233 H 54.124262 L 33.043858,98.5625 54.124262,62.050169 l 42.160808,0 z"
       id="F6" />
    <path
       class="ocean plant-1"
       transform="matrix(0,0.40729856,-0.40729856,0,288.05932,126.71869)"
       style="fill:none;stroke:#000000;stroke-width:0.18862587"
       d="m 180.60669,135.07483 -21.08041,36.51233 h -42.16081 l -21.080405,-36.51233 21.080405,-36.512335 42.16081,0 z"
       id="F7" />
    <path
       class="ocean plant-1"
       transform="matrix(0,0.40729856,-0.40729856,0,332.67358,152.47675)"
       style="fill:none;stroke:#000000;stroke-width:0.18862587"
       d="M 117.36548,171.58717 96.285072,208.09951 H 54.12426 l -21.080406,-36.51234 21.080406,-36.51233 42.160812,0 z"
       id="F8" />
    <path
       class="earth"
       transform="matrix(0,0.40729856,-0.40729856,0,109.60226,178.23479)"
       style="fill:none;stroke:#000000;stroke-width:0.18862587"
       d="m 117.36547,98.5625 -21.0804,36.51233 H 54.124262 L 33.043858,98.5625 54.124262,62.050169 l 42.160808,0 z"
       id="G1" />
    <path
       class="earth"
       transform="matrix(0,0.40729856,-0.40729856,0,154.21652,152.47674)"
       style="fill:none;stroke:#000000;stroke-width:0.18862587"
       d="m 180.60669,135.07483 -21.08041,36.51233 h -42.16081 l -21.080405,-36.51233 21.080405,-36.512335 42.16081,0 z"
       id="G2" />
    <path
       class="earth"
       transform="matrix(0,0.40729856,-0.40729856,0,198.83079,178.23479)"
       style="fill:none;stroke:#000000;stroke-width:0.18862587"
       d="M 117.36548,171.58717 96.285072,208.09951 H 54.12426 l -21.080406,-36.51234 21.080406,-36.51233 42.160812,0 z"
       id="G3" />
    <path
       class="earth"
       transform="matrix(0,0.40729856,-0.40729856,0,228.57363,178.23479)"
       style="fill:none;stroke:#000000;stroke-width:0.18862587"
       d="M 117.36548,171.58717 96.285072,208.09951 H 54.12426 l -21.080406,-36.51234 21.080406,-36.51233 42.160812,0 z"
       id="G4" />
    <path
       class="earth"
       transform="matrix(0,0.40729856,-0.40729856,0,258.31646,178.23479)"
       style="fill:none;stroke:#000000;stroke-width:0.18862587"
       d="M 117.36548,171.58717 96.285072,208.09951 H 54.12426 l -21.080406,-36.51234 21.080406,-36.51233 42.160812,0 z"
       id="G5" />
    <path
       class="earth plant-1"
       transform="matrix(0,0.40729856,-0.40729856,0,288.05932,178.23479)"
       style="fill:none;stroke:#000000;stroke-width:0.18862587"
       d="M 117.36548,171.58717 96.285072,208.09951 H 54.12426 l -21.080406,-36.51234 21.080406,-36.51233 42.160812,0 z"
       id="G6" />
    <path
       class="earth"
       transform="matrix(0,0.40729856,-0.40729856,0,317.80215,178.23479)"
       style="fill:none;stroke:#000000;stroke-width:0.18862587"
       d="M 117.36548,171.58717 96.285072,208.09951 H 54.12426 l -21.080406,-36.51234 21.080406,-36.51233 42.160812,0 z"
       id="G7" />
    <path
       class="earth steel-2"
       transform="matrix(0,0.40729856,-0.40729856,0,124.47368,203.99285)"
       style="fill:none;stroke:#000000;stroke-width:0.18862587"
       d="m 117.36547,98.5625 -21.0804,36.51233 H 54.124262 L 33.043858,98.5625 54.124262,62.050169 l 42.160808,0 z"
       id="H1" />
    <path
       class="earth"
       transform="matrix(0,0.40729856,-0.40729856,0,169.08794,178.23479)"
       style="fill:none;stroke:#000000;stroke-width:0.18862587"
       d="m 180.60669,135.07483 -21.08041,36.51233 h -42.16081 l -21.080405,-36.51233 21.080405,-36.512335 42.16081,0 z"
       id="H2" />
    <path
       class="earth"
       transform="matrix(0,0.40729856,-0.40729856,0,213.70221,203.99285)"
       style="fill:none;stroke:#000000;stroke-width:0.18862587"
       d="M 117.36548,171.58717 96.285072,208.09951 H 54.12426 l -21.080406,-36.51234 21.080406,-36.51233 42.160812,0 z"
       id="H3" />
    <path
       class="earth card-1"
       transform="matrix(0,0.40729856,-0.40729856,0,243.44505,203.99285)"
       style="fill:none;stroke:#000000;stroke-width:0.18862587"
       d="M 117.36548,171.58717 96.285072,208.09951 H 54.12426 l -21.080406,-36.51234 21.080406,-36.51233 42.160812,0 z"
       id="H4" />
    <path
       class="earth"
       transform="matrix(0,0.40729856,-0.40729856,0,273.18789,203.99285)"
       style="fill:none;stroke:#000000;stroke-width:0.18862587"
       d="M 117.36548,171.58717 96.285072,208.09951 H 54.12426 l -21.080406,-36.51234 21.080406,-36.51233 42.160812,0 z"
       id="H5" />
    <path
       class="earth titanium-1"
       transform="matrix(0,0.40729856,-0.40729856,0,302.93073,203.99285)"
       style="fill:none;stroke:#000000;stroke-width:0.18862587"
       d="M 117.36548,171.58717 96.285072,208.09951 H 54.12426 l -21.080406,-36.51234 21.080406,-36.51233 42.160812,0 z"
       id="H6" />
    <path
       class="earth steel-1"
       transform="matrix(0,0.40729856,-0.40729856,0,139.34511,229.75091)"
       style="fill:none;stroke:#000000;stroke-width:0.18862587"
       d="m 117.36547,98.5625 -21.0804,36.51233 H 54.124262 L 33.043858,98.5625 54.124262,62.050169 l 42.160808,0 z"
       id="I1" />
    <path
       class="earth steel-2"
       transform="matrix(0,0.40729856,-0.40729856,0,183.95937,203.99285)"
       style="fill:none;stroke:#000000;stroke-width:0.18862587"
       d="m 180.60669,135.07483 -21.08041,36.51233 h -42.16081 l -21.080405,-36.51233 21.080405,-36.512335 42.16081,0 z"
       id="I2" />
    <path
       class="earth"
       transform="matrix(0,0.40729856,-0.40729856,0,228.57364,229.75091)"
       style="fill:none;stroke:#000000;stroke-width:0.18862587"
       d="M 117.36548,171.58717 96.285072,208.09951 H 54.12426 l -21.080406,-36.51234 21.080406,-36.51233 42.160812,0 z"
       id="I3" />
    <path
       class="earth"
       transform="matrix(0,0.40729856,-0.40729856,0,258.31647,229.75091)"
       style="fill:none;stroke:#000000;stroke-width:0.18862587"
       d="M 117.36548,171.58717 96.285072,208.09951 H 54.12426 l -21.080406,-36.51234 21.080406,-36.51233 42.160812,0 z"
       id="I4" />
    <path
       class="ocean titanium-2"
       transform="matrix(0,0.40729856,-0.40729856,0,288.05932,229.75091)"
       style="fill:none;stroke:#000000;stroke-width:0.18862587"
       d="M 117.36548,171.58717 96.285072,208.09951 H 54.12426 l -21.080406,-36.51234 21.080406,-36.51233 42.160812,0 z"
       id="I5" />
    <path
       transform="matrix(0,0.40729856,-0.40729856,0,71.931543,2.9095593)"
       class="ganymede"
       style="fill:none;stroke:#000000;stroke-width:0.7365604;stroke-miterlimit:4;stroke-dasharray:none"
       d="m 117.36547,98.5625 -21.0804,36.51233 H 54.124262 L 33.043858,98.5625 54.124262,62.050169 l 42.160808,0 z"
       id="A1-3" />
    <path
       transform="matrix(0,0.40729856,-0.40729856,0,320.65226,244.38057)"
       class="phobos"
       style="fill:none;stroke:#000000;stroke-width:0.7365604;stroke-miterlimit:4;stroke-dasharray:none"
       d="m 117.36547,98.5625 -21.0804,36.51233 H 54.124262 L 33.043858,98.5625 54.124262,62.050169 l 42.160808,0 z"
       id="A1-6" />
  </g>
</svg>
