<?xml version="1.0" encoding="UTF-8" standalone="no"?>
<!-- Created with Inkscape (http://www.inkscape.org/) -->

<svg
   xmlns:dc="http://purl.org/dc/elements/1.1/"
   xmlns:cc="http://creativecommons.org/ns#"
   xmlns:rdf="http://www.w3.org/1999/02/22-rdf-syntax-ns#"
   xmlns:svg="http://www.w3.org/2000/svg"
   xmlns="http://www.w3.org/2000/svg"
   xmlns:xlink="http://www.w3.org/1999/xlink"
   xmlns:sodipodi="http://sodipodi.sourceforge.net/DTD/sodipodi-0.dtd"
   xmlns:inkscape="http://www.inkscape.org/namespaces/inkscape"
   width="210mm"
   height="297mm"
   viewBox="0 0 210 297"
   version="1.1"
   id="svg2544"
   inkscape:version="0.92.3 (unknown)"
   sodipodi:docname="ocean-counter.svg">
  <defs
     id="defs2538">
    <linearGradient
       inkscape:collect="always"
       xlink:href="#linearGradient1355"
       id="linearGradient1357"
       x1="-168.2939"
       y1="95.727676"
       x2="-168.2939"
       y2="-2.9241056"
       gradientUnits="userSpaceOnUse"
       gradientTransform="matrix(0.29791936,0,0,0.29791936,113.26743,37.519613)" />
    <linearGradient
       inkscape:collect="always"
       id="linearGradient1355">
      <stop
         style="stop-color:#0078df;stop-opacity:1"
         offset="0"
         id="stop1351" />
      <stop
         style="stop-color:#00bcff;stop-opacity:0"
         offset="1"
         id="stop1353" />
    </linearGradient>
  </defs>
  <sodipodi:namedview
     id="base"
     pagecolor="#ffffff"
     bordercolor="#666666"
     borderopacity="1.0"
     inkscape:pageopacity="0.0"
     inkscape:pageshadow="2"
     inkscape:zoom="3.959798"
     inkscape:cx="314.78756"
     inkscape:cy="638.70862"
     inkscape:document-units="mm"
     inkscape:current-layer="layer1"
     showgrid="false"
     inkscape:window-width="1853"
     inkscape:window-height="1016"
     inkscape:window-x="67"
     inkscape:window-y="27"
     inkscape:window-maximized="1" />
  <metadata
     id="metadata2541">
    <rdf:RDF>
      <cc:Work
         rdf:about="">
        <dc:format>image/svg+xml</dc:format>
        <dc:type
           rdf:resource="http://purl.org/dc/dcmitype/StillImage" />
        <dc:title></dc:title>
      </cc:Work>
    </rdf:RDF>
  </metadata>
  <g
     inkscape:label="Layer 1"
     inkscape:groupmode="layer"
     id="layer1">
    <g
       transform="translate(35.236486,60.293917)"
       id="g1399">
      <path
         inkscape:transform-center-x="-1.2509835e-06"
         d="m 69.947174,51.288107 0,7.978809 -6.909851,3.989404 -6.909851,-3.989404 0,-7.978809 6.909851,-3.989404 z"
         inkscape:randomized="0"
         inkscape:rounded="0"
         inkscape:flatsided="true"
         sodipodi:arg2="0"
         sodipodi:arg1="-0.52359878"
         sodipodi:r2="6.9098506"
         sodipodi:r1="7.9788089"
         sodipodi:cy="55.277512"
         sodipodi:cx="63.037323"
         sodipodi:sides="6"
         id="path1277"
         style="opacity:1;fill:url(#linearGradient1357);fill-opacity:1;stroke:#0004ff;stroke-width:0.30000001;stroke-miterlimit:4;stroke-dasharray:none;stroke-opacity:1"
         sodipodi:type="star" />
      <path
         inkscape:connector-curvature="0"
         id="path1301"
         d="m 62.448185,56.350893 c -0.748159,-0.32575 -1.091869,-1.205292 -0.797185,-2.039967 0.08828,-0.250044 0.359774,-0.78211 0.603317,-1.182367 0.243543,-0.400257 0.520664,-0.925434 0.615823,-1.16706 l 0.173016,-0.439319 0.127179,0.364828 c 0.06995,0.200655 0.34609,0.727722 0.613649,1.171261 0.676345,1.121197 0.79542,1.457092 0.728144,2.053981 -0.06531,0.579423 -0.391195,1.004981 -0.952862,1.244306 -0.445708,0.189913 -0.664453,0.188798 -1.111081,-0.0057 z m -0.03533,-1.106763 c 0.06396,-0.788048 0.115322,-1.086443 0.27307,-1.586394 0.100873,-0.319703 0.203223,-0.64462 0.227438,-0.722037 0.02422,-0.07742 0.0076,-0.140419 -0.03689,-0.140005 -0.113526,0.001 -0.880474,1.452202 -0.971766,1.838677 -0.04147,0.175585 -0.04461,0.416281 -0.007,0.534881 0.07546,0.237746 0.496921,0.299012 0.515111,0.07488 z"
         style="opacity:1;fill:#0051df;fill-opacity:1;stroke:#0004ff;stroke-width:0.09999999;stroke-miterlimit:4;stroke-dasharray:none;stroke-opacity:1" />
      <path
         inkscape:connector-curvature="0"
         id="path1303"
         d="m 62.688927,57.350074 c -0.01358,-0.0079 -0.09594,-0.01989 -0.182985,-0.0266 -0.253517,-0.01955 -0.437607,-0.04315 -0.467939,-0.06 -0.02756,-0.01531 -0.06927,-0.02602 -0.211135,-0.05421 -0.06224,-0.01237 -0.107343,-0.02898 -0.193353,-0.07123 -0.01344,-0.0066 -0.03378,-0.01201 -0.04519,-0.01201 -0.0407,0 -0.250386,-0.12081 -0.325176,-0.187348 -0.08253,-0.07342 -0.147113,-0.183926 -0.147113,-0.251707 0,-0.07492 0.07685,-0.195969 0.156897,-0.247141 0.03936,-0.02516 0.07717,-0.04574 0.08402,-0.04574 0.0069,0 0.01245,-0.0063 0.01245,-0.01408 0,-0.0077 0.01767,-0.01408 0.03925,-0.01408 0.0216,0 0.0641,-0.01267 0.09447,-0.02815 0.03037,-0.01548 0.0808,-0.0277 0.112065,-0.02716 l 0.05685,9.84e-4 -0.05632,0.02509 c -0.15844,0.07059 -0.356172,0.236036 -0.361141,0.302171 -0.0065,0.08617 0.01633,0.118632 0.142986,0.203511 0.101314,0.0679 0.295307,0.142874 0.369659,0.142874 0.02029,0 0.04079,0.0063 0.04558,0.01408 0.0048,0.0077 0.03072,0.01408 0.05763,0.01408 0.0269,0 0.06296,0.0089 0.0801,0.01978 0.03507,0.02225 0.269719,0.05188 0.481369,0.06078 0.07729,0.0032 0.149026,0.01296 0.159408,0.02158 0.02806,0.0233 0.686588,0.03195 0.812054,0.01067 0.05419,-0.0092 0.171375,-0.02184 0.260402,-0.0281 0.194664,-0.01371 0.469512,-0.04961 0.527845,-0.06896 0.02321,-0.0077 0.07073,-0.02146 0.105568,-0.03058 0.08059,-0.02109 0.13622,-0.03968 0.192149,-0.06423 0.0244,-0.0107 0.05194,-0.01946 0.06122,-0.01946 0.06053,0 0.238943,-0.128346 0.274801,-0.197683 0.01784,-0.0345 0.01767,-0.04564 -0.0015,-0.09134 -0.02753,-0.06588 -0.149654,-0.183785 -0.226743,-0.218903 -0.03245,-0.01478 -0.06316,-0.03362 -0.06826,-0.04186 -0.0051,-0.0082 -0.02607,-0.02192 -0.0466,-0.0304 -0.03274,-0.01352 -0.03399,-0.0162 -0.01016,-0.02177 0.03374,-0.0079 0.204569,0.04718 0.289518,0.0933 0.128719,0.0699 0.196928,0.166879 0.197008,0.280117 3e-5,0.04075 -0.0053,0.08509 -0.01189,0.09853 -0.04395,0.08991 -0.0637,0.115231 -0.130915,0.167772 -0.04142,0.03238 -0.129154,0.08535 -0.194958,0.117718 -0.0658,0.03236 -0.130644,0.06446 -0.144086,0.07133 -0.01344,0.0069 -0.03688,0.01248 -0.05209,0.01248 -0.01519,0 -0.03271,0.0085 -0.0389,0.0189 -0.0062,0.0104 -0.05243,0.02644 -0.10275,0.03565 -0.194291,0.03557 -0.214299,0.04036 -0.223138,0.05345 -0.0096,0.01425 -0.212834,0.04026 -0.476609,0.06101 -0.08681,0.0068 -0.170317,0.0191 -0.18558,0.02727 -0.03676,0.01967 -0.67499,0.01931 -0.708839,-3.87e-4 z"
         style="opacity:1;fill:#0051df;fill-opacity:1;stroke:#0004ff;stroke-width:0.09999999;stroke-miterlimit:4;stroke-dasharray:none;stroke-opacity:1" />
      <path
         inkscape:connector-curvature="0"
         id="path1305"
         d="m 62.46356,58.011557 c -0.293689,-0.01918 -0.394186,-0.03037 -0.413693,-0.04605 -0.01075,-0.0087 -0.05827,-0.02023 -0.105571,-0.02573 -0.186221,-0.02165 -0.298393,-0.04119 -0.325283,-0.05667 -0.01549,-0.0089 -0.05349,-0.02103 -0.08446,-0.02694 -0.03096,-0.0059 -0.08164,-0.01713 -0.112607,-0.02494 -0.03097,-0.0078 -0.07531,-0.01825 -0.09853,-0.02317 -0.02324,-0.0049 -0.06231,-0.01793 -0.08685,-0.02891 -0.02455,-0.01098 -0.06571,-0.02358 -0.09149,-0.02801 -0.04735,-0.0081 -0.08815,-0.02283 -0.152439,-0.05491 -0.01937,-0.0097 -0.06796,-0.02823 -0.108005,-0.04128 -0.04005,-0.01305 -0.08041,-0.03288 -0.0897,-0.04407 -0.0093,-0.01119 -0.02568,-0.02034 -0.03646,-0.02034 -0.01078,0 -0.03058,-0.0063 -0.04402,-0.01407 -0.01344,-0.0077 -0.04028,-0.02039 -0.05963,-0.02812 -0.01936,-0.0077 -0.04757,-0.02198 -0.0627,-0.03168 -0.01513,-0.0097 -0.08164,-0.05213 -0.147798,-0.0943 -0.06616,-0.04217 -0.164624,-0.121347 -0.218815,-0.175947 -0.097,-0.09773 -0.190025,-0.24546 -0.190025,-0.301766 0,-0.01545 -0.0063,-0.03201 -0.01406,-0.0368 -0.01835,-0.01133 -0.01835,-0.157579 0,-0.16891 0.0077,-0.0048 0.01406,-0.02547 0.01406,-0.04597 0,-0.04325 0.08106,-0.164006 0.174643,-0.260184 0.03578,-0.03677 0.06782,-0.06686 0.07118,-0.06686 0.0034,0 0.03428,-0.019 0.06869,-0.04223 0.03441,-0.02323 0.07115,-0.04269 0.08164,-0.04326 0.01049,-5.66e-4 0.03807,-0.01294 0.0613,-0.02749 0.05352,-0.03354 0.161189,-0.08409 0.179082,-0.08409 0.0075,0 0.03045,-0.0089 0.051,-0.01972 0.02056,-0.01085 0.07854,-0.03048 0.128856,-0.04364 0.05032,-0.01315 0.117041,-0.03278 0.148266,-0.04362 0.03122,-0.01084 0.06955,-0.0197 0.08516,-0.0197 0.01561,0 0.0344,-0.0055 0.04176,-0.0123 0.0074,-0.0068 0.06721,-0.01654 0.133015,-0.02173 0.108654,-0.0086 0.117059,-0.0075 0.09149,0.01185 -0.01549,0.0117 -0.04203,0.02148 -0.05899,0.02173 -0.01695,2.36e-4 -0.03476,0.0068 -0.03954,0.01452 -0.0048,0.0077 -0.02401,0.01408 -0.04271,0.01408 -0.01871,0 -0.0755,0.019 -0.126205,0.04223 -0.05071,0.02323 -0.09941,0.04223 -0.108228,0.04223 -0.02473,0 -0.124021,0.04635 -0.124021,0.05789 0,0.0056 -0.01892,0.01441 -0.04207,0.01949 -0.02315,0.0051 -0.04568,0.01509 -0.05009,0.02223 -0.0044,0.0071 -0.02053,0.01299 -0.0358,0.01299 -0.01528,0 -0.03141,0.0095 -0.03586,0.02111 -0.0044,0.01161 -0.0185,0.02158 -0.03123,0.02214 -0.02297,10e-4 -0.03725,0.0092 -0.157933,0.09046 -0.121259,0.08164 -0.168682,0.123962 -0.229326,0.204637 -0.07849,0.104411 -0.100747,0.186042 -0.07253,0.26601 0.0365,0.103458 0.218757,0.31056 0.2733,0.31056 0.0085,0 0.01558,0.0065 0.01558,0.01452 0,0.008 0.01108,0.01845 0.02464,0.02325 0.01355,0.0048 0.03433,0.017 0.04619,0.0271 0.04321,0.03683 0.290335,0.156448 0.372569,0.180341 0.04645,0.0135 0.09396,0.03037 0.105568,0.03749 0.04302,0.02639 0.09352,0.04359 0.168911,0.05752 0.04258,0.0079 0.09642,0.02266 0.119642,0.03287 0.02324,0.01021 0.06756,0.02495 0.09853,0.03276 0.314075,0.07922 0.47213,0.107125 0.703789,0.124251 0.05419,0.004 0.105026,0.01265 0.11296,0.0192 0.02124,0.01754 0.117874,0.0262 0.478226,0.04285 0.342723,0.01584 0.970278,-0.003 1.083836,-0.03256 0.03097,-0.0081 0.10381,-0.01739 0.161872,-0.02074 0.05806,-0.0033 0.111585,-0.01195 0.118941,-0.01911 0.0074,-0.0072 0.04536,-0.01342 0.08445,-0.01392 0.07742,-9.84e-4 0.224825,-0.0285 0.241386,-0.04506 0.0057,-0.0057 0.02818,-0.01034 0.05002,-0.01034 0.06402,0 0.269021,-0.05045 0.314561,-0.07742 0.01549,-0.0092 0.05828,-0.02072 0.0951,-0.02567 0.08528,-0.01147 0.207531,-0.0512 0.207531,-0.06744 0,-0.0069 0.01335,-0.01246 0.02964,-0.01246 0.02547,0 0.163459,-0.0568 0.241109,-0.09925 0.01344,-0.0073 0.03325,-0.01336 0.04402,-0.01336 0.01076,0 0.02827,-0.01053 0.0389,-0.02339 0.01063,-0.01286 0.05277,-0.03821 0.09367,-0.05633 0.04089,-0.01811 0.07777,-0.04185 0.08195,-0.05276 0.0042,-0.0109 0.02181,-0.02339 0.03918,-0.02774 0.03919,-0.0098 0.20568,-0.181092 0.20568,-0.211573 0,-0.01228 0.0063,-0.02233 0.01406,-0.02233 0.0077,0 0.01427,-0.01109 0.01454,-0.02463 2.36e-4,-0.01355 0.0097,-0.03693 0.02112,-0.05195 0.05315,-0.07027 -0.01341,-0.220149 -0.15799,-0.355769 -0.05186,-0.04865 -0.09965,-0.08845 -0.106202,-0.08845 -0.0066,0 -0.02389,-0.01109 -0.03854,-0.02463 -0.01466,-0.01355 -0.05714,-0.04047 -0.09442,-0.05982 -0.03728,-0.01935 -0.07096,-0.03913 -0.07483,-0.04394 -0.0039,-0.0048 -0.03871,-0.02262 -0.07742,-0.03956 -0.03871,-0.01694 -0.08938,-0.03926 -0.112605,-0.04959 -0.07924,-0.03524 -0.112634,-0.04861 -0.232252,-0.09302 -0.0658,-0.02443 -0.132312,-0.04948 -0.147794,-0.05565 -0.01549,-0.0062 -0.05349,-0.02095 -0.08446,-0.03283 -0.056,-0.02148 -0.05567,-0.02155 0.06334,-0.01357 0.0658,0.0044 0.125659,0.01355 0.133015,0.0203 0.0074,0.0067 0.0345,0.01227 0.06032,0.01227 0.02583,0 0.06097,0.0087 0.07812,0.01924 0.01716,0.01058 0.07868,0.03016 0.136745,0.0435 0.05806,0.01334 0.143001,0.04269 0.188753,0.06522 0.04575,0.02253 0.0918,0.04096 0.102329,0.04096 0.01052,0 0.04277,0.01443 0.07165,0.03207 0.02887,0.01764 0.07761,0.04456 0.1083,0.05982 0.0588,0.02925 0.303138,0.253722 0.303138,0.278496 0,0.008 0.01108,0.02673 0.02464,0.0417 0.02068,0.02285 0.02464,0.0553 0.02464,0.202202 0,0.113364 -0.0055,0.178519 -0.0157,0.185026 -0.0086,0.0055 -0.02952,0.03732 -0.04644,0.07066 -0.04011,0.0791 -0.19536,0.235182 -0.310867,0.312519 -0.05032,0.03369 -0.0936,0.06645 -0.09618,0.07279 -0.0027,0.0063 -0.01314,0.01153 -0.02348,0.01153 -0.02422,0 -0.105332,0.04601 -0.105449,0.05982 -4.1e-5,0.0058 -0.0073,0.01056 -0.01618,0.01056 -0.0088,0 -0.07546,0.0285 -0.148039,0.06334 -0.07258,0.03484 -0.143746,0.06334 -0.158147,0.06334 -0.01439,0 -0.03407,0.0095 -0.04371,0.02111 -0.0096,0.01161 -0.03131,0.02111 -0.04817,0.02111 -0.01686,0 -0.03667,0.0052 -0.04402,0.0115 -0.0074,0.0063 -0.04821,0.01982 -0.09079,0.02998 -0.04258,0.01016 -0.08375,0.02235 -0.09149,0.02709 -0.0316,0.01934 -0.114991,0.04362 -0.150485,0.04382 -0.02083,7.9e-5 -0.04179,0.0066 -0.04658,0.01429 -0.0048,0.0077 -0.02476,0.01408 -0.0444,0.01408 -0.01963,0 -0.05252,0.0089 -0.07307,0.01984 -0.03393,0.01802 -0.113117,0.03147 -0.362646,0.06158 -0.04729,0.0057 -0.0948,0.01768 -0.105567,0.0266 -0.01948,0.01616 -0.05985,0.02048 -0.420734,0.04503 -0.220228,0.01498 -0.934963,0.01531 -1.161254,5.66e-4 z"
         style="opacity:1;fill:#0051df;fill-opacity:1;stroke:#0004ff;stroke-width:0.09999999;stroke-miterlimit:4;stroke-dasharray:none;stroke-opacity:1" />
    </g>
    <text
       xml:space="preserve"
       style="font-style:normal;font-variant:normal;font-weight:normal;font-stretch:normal;font-size:10.58333302px;line-height:1.25;font-family:Uroob;-inkscape-font-specification:Uroob;text-align:center;letter-spacing:0px;word-spacing:0px;text-anchor:middle;fill:#000000;fill-opacity:1;stroke:none;stroke-width:0.26458332"
       x="108.00603"
       y="118.34438"
       id="text3244"><tspan
         sodipodi:role="line"
         id="tspan3242"
         x="108.00603"
         y="118.34438"
         style="stroke-width:0.26458332">9</tspan></text>
  </g>
</svg>
