<?xml version="1.0" encoding="UTF-8" standalone="no"?>
<!-- Created with Inkscape (http://www.inkscape.org/) -->

<svg
   xmlns:osb="http://www.openswatchbook.org/uri/2009/osb"
   xmlns:dc="http://purl.org/dc/elements/1.1/"
   xmlns:cc="http://creativecommons.org/ns#"
   xmlns:rdf="http://www.w3.org/1999/02/22-rdf-syntax-ns#"
   xmlns:svg="http://www.w3.org/2000/svg"
   xmlns="http://www.w3.org/2000/svg"
   xmlns:xlink="http://www.w3.org/1999/xlink"
   xmlns:sodipodi="http://sodipodi.sourceforge.net/DTD/sodipodi-0.dtd"
   xmlns:inkscape="http://www.inkscape.org/namespaces/inkscape"
   width="210mm"
   height="297mm"
   viewBox="0 0 210 297"
   version="1.1"
   id="svg2544"
   inkscape:version="0.92.3 (unknown)"
   sodipodi:docname="ocean-counter.svg">
  <defs
     id="defs2538">
    <linearGradient
       id="linearGradient4193"
       osb:paint="solid">
      <stop
         style="stop-color:#ffe100;stop-opacity:1;"
         offset="0"
         id="stop4191" />
    </linearGradient>
    <linearGradient
       inkscape:collect="always"
       xlink:href="#linearGradient1355"
       id="linearGradient1357"
       x1="-168.60304"
       y1="86.388161"
       x2="-168.60304"
       y2="32.824612"
       gradientUnits="userSpaceOnUse"
       gradientTransform="matrix(0.29791936,0,0,0.29791936,148.50392,97.81353)" />
    <linearGradient
       inkscape:collect="always"
       id="linearGradient1355">
      <stop
         style="stop-color:#0078df;stop-opacity:1"
         offset="0"
         id="stop1351" />
      <stop
         style="stop-color:#80deff;stop-opacity:1"
         offset="1"
         id="stop1353" />
    </linearGradient>
    <linearGradient
       inkscape:collect="always"
       xlink:href="#linearGradient1355"
       id="linearGradient2723"
       gradientUnits="userSpaceOnUse"
       gradientTransform="matrix(0.29791936,0,0,0.29791936,99.043701,102.82172)"
       x1="-168.60304"
       y1="86.388161"
       x2="-168.60304"
       y2="32.824612" />
  </defs>
  <sodipodi:namedview
     id="base"
     pagecolor="#ffffff"
     bordercolor="#666666"
     borderopacity="1.0"
     inkscape:pageopacity="0.0"
     inkscape:pageshadow="2"
     inkscape:zoom="2.8"
     inkscape:cx="260.13252"
     inkscape:cy="683.72883"
     inkscape:document-units="mm"
     inkscape:current-layer="layer1"
     showgrid="false"
     inkscape:window-width="1853"
     inkscape:window-height="1016"
     inkscape:window-x="67"
     inkscape:window-y="27"
     inkscape:window-maximized="1" />
  <metadata
     id="metadata2541">
    <rdf:RDF>
      <cc:Work
         rdf:about="">
        <dc:format>image/svg+xml</dc:format>
        <dc:type
           rdf:resource="http://purl.org/dc/dcmitype/StillImage" />
        <dc:title />
      </cc:Work>
    </rdf:RDF>
  </metadata>
  <g
     inkscape:label="Layer 1"
     inkscape:groupmode="layer"
     id="layer1">
    <g
       id="g1703">
      <path
         inkscape:transform-center-x="-1.2509835e-06"
         d="m 105.18366,111.58202 0,7.97881 -6.909849,3.98941 -6.909851,-3.98941 0,-7.97881 6.909851,-3.9894 z"
         inkscape:randomized="0"
         inkscape:rounded="0"
         inkscape:flatsided="true"
         sodipodi:arg2="0"
         sodipodi:arg1="-0.52359878"
         sodipodi:r2="6.9098506"
         sodipodi:r1="7.9788089"
         sodipodi:cy="115.57143"
         sodipodi:cx="98.273811"
         sodipodi:sides="6"
         id="path1277"
         style="opacity:1;fill:url(#linearGradient1357);fill-opacity:1;stroke:#0004ff;stroke-width:0.30000001;stroke-miterlimit:4;stroke-dasharray:none;stroke-opacity:1"
         sodipodi:type="star" />
      <path
         inkscape:connector-curvature="0"
         id="path1301"
         d="m 97.684671,116.64481 c -0.748159,-0.32575 -1.091869,-1.20529 -0.797185,-2.03997 0.08828,-0.25004 0.359774,-0.78211 0.603317,-1.18236 0.243543,-0.40026 0.520664,-0.92544 0.615823,-1.16706 l 0.173016,-0.43932 0.127179,0.36483 c 0.06995,0.20065 0.34609,0.72772 0.613649,1.17126 0.676345,1.12119 0.79542,1.45709 0.728144,2.05398 -0.06531,0.57942 -0.391195,1.00498 -0.952862,1.2443 -0.445708,0.18992 -0.664453,0.1888 -1.111081,-0.006 z m -0.03533,-1.10676 c 0.06396,-0.78805 0.115322,-1.08645 0.27307,-1.5864 0.100873,-0.3197 0.203223,-0.64462 0.227438,-0.72203 0.02422,-0.0774 0.0076,-0.14042 -0.03689,-0.14001 -0.113526,0.001 -0.880474,1.4522 -0.971766,1.83868 -0.04147,0.17558 -0.04461,0.41628 -0.007,0.53488 0.07546,0.23774 0.496921,0.29901 0.515111,0.0749 z"
         style="opacity:1;fill:#0051df;fill-opacity:1;stroke:#0004ff;stroke-width:0.09999999;stroke-miterlimit:4;stroke-dasharray:none;stroke-opacity:1" />
      <path
         inkscape:connector-curvature="0"
         id="path1303"
         d="m 97.925413,117.64399 c -0.01358,-0.008 -0.09594,-0.0199 -0.182985,-0.0266 -0.253517,-0.0195 -0.437607,-0.0431 -0.467939,-0.06 -0.02756,-0.0153 -0.06927,-0.026 -0.211135,-0.0542 -0.06224,-0.0124 -0.107343,-0.029 -0.193353,-0.0712 -0.01344,-0.007 -0.03378,-0.012 -0.04519,-0.012 -0.0407,0 -0.250386,-0.12081 -0.325176,-0.18735 -0.08253,-0.0734 -0.147113,-0.18392 -0.147113,-0.2517 0,-0.0749 0.07685,-0.19597 0.156897,-0.24714 0.03936,-0.0252 0.07717,-0.0457 0.08402,-0.0457 0.0069,0 0.01245,-0.006 0.01245,-0.0141 0,-0.008 0.01767,-0.0141 0.03925,-0.0141 0.0216,0 0.0641,-0.0127 0.09447,-0.0281 0.03037,-0.0155 0.0808,-0.0277 0.112065,-0.0272 l 0.05685,9.8e-4 -0.05632,0.0251 c -0.15844,0.0706 -0.356172,0.23604 -0.361141,0.30217 -0.0065,0.0862 0.01633,0.11863 0.142986,0.20351 0.101314,0.0679 0.295307,0.14288 0.369659,0.14288 0.02029,0 0.04079,0.006 0.04558,0.0141 0.0048,0.008 0.03072,0.0141 0.05763,0.0141 0.0269,0 0.06296,0.009 0.0801,0.0198 0.03507,0.0223 0.269719,0.0519 0.481369,0.0608 0.07729,0.003 0.149026,0.013 0.159408,0.0216 0.02806,0.0233 0.686588,0.032 0.812054,0.0107 0.05419,-0.009 0.171375,-0.0218 0.260402,-0.0281 0.194664,-0.0137 0.469512,-0.0496 0.527845,-0.069 0.02321,-0.008 0.07073,-0.0215 0.105568,-0.0306 0.08059,-0.0211 0.13622,-0.0397 0.192149,-0.0642 0.0244,-0.0107 0.05194,-0.0195 0.06122,-0.0195 0.06053,0 0.238947,-0.12834 0.274797,-0.19768 0.0178,-0.0345 0.0177,-0.0456 -0.002,-0.0913 -0.0275,-0.0659 -0.14965,-0.18378 -0.226739,-0.2189 -0.03245,-0.0148 -0.06316,-0.0336 -0.06826,-0.0419 -0.0051,-0.008 -0.02607,-0.0219 -0.0466,-0.0304 -0.03274,-0.0135 -0.03399,-0.0162 -0.01016,-0.0218 0.03374,-0.008 0.204569,0.0472 0.289518,0.0933 0.128721,0.0699 0.196931,0.16688 0.197011,0.28012 3e-5,0.0407 -0.005,0.0851 -0.0119,0.0985 -0.044,0.0899 -0.0637,0.11523 -0.13092,0.16777 -0.0414,0.0324 -0.129152,0.0853 -0.194956,0.11772 -0.0658,0.0324 -0.130644,0.0645 -0.144086,0.0713 -0.01344,0.007 -0.03688,0.0125 -0.05209,0.0125 -0.01519,0 -0.03271,0.008 -0.0389,0.0189 -0.0062,0.0104 -0.05243,0.0264 -0.10275,0.0357 -0.194291,0.0356 -0.214299,0.0404 -0.223138,0.0534 -0.0096,0.0143 -0.212834,0.0403 -0.476609,0.061 -0.08681,0.007 -0.170317,0.0191 -0.18558,0.0273 -0.03676,0.0197 -0.67499,0.0193 -0.708839,-3.9e-4 z"
         style="opacity:1;fill:#0051df;fill-opacity:1;stroke:#0004ff;stroke-width:0.09999999;stroke-miterlimit:4;stroke-dasharray:none;stroke-opacity:1" />
      <path
         inkscape:connector-curvature="0"
         id="path1305"
         d="m 97.700046,118.30547 c -0.293689,-0.0192 -0.394186,-0.0304 -0.413693,-0.046 -0.01075,-0.009 -0.05827,-0.0202 -0.105571,-0.0257 -0.186221,-0.0216 -0.298393,-0.0412 -0.325283,-0.0567 -0.01549,-0.009 -0.05349,-0.021 -0.08446,-0.0269 -0.03096,-0.006 -0.08164,-0.0171 -0.112607,-0.0249 -0.03097,-0.008 -0.07531,-0.0182 -0.09853,-0.0232 -0.02324,-0.005 -0.06231,-0.0179 -0.08685,-0.0289 -0.02455,-0.011 -0.06571,-0.0236 -0.09149,-0.028 -0.04735,-0.008 -0.08815,-0.0228 -0.152439,-0.0549 -0.01937,-0.01 -0.06796,-0.0282 -0.108005,-0.0413 -0.04005,-0.013 -0.08041,-0.0329 -0.0897,-0.0441 -0.0093,-0.0112 -0.02568,-0.0203 -0.03646,-0.0203 -0.01078,0 -0.03058,-0.006 -0.04402,-0.0141 -0.01344,-0.008 -0.04028,-0.0204 -0.05963,-0.0281 -0.01936,-0.008 -0.04757,-0.022 -0.0627,-0.0317 -0.01513,-0.01 -0.08164,-0.0521 -0.147798,-0.0943 -0.06616,-0.0422 -0.164624,-0.12134 -0.218815,-0.17594 -0.097,-0.0977 -0.190025,-0.24546 -0.190025,-0.30177 0,-0.0155 -0.0063,-0.032 -0.01406,-0.0368 -0.01835,-0.0113 -0.01835,-0.15758 0,-0.16891 0.0077,-0.005 0.01406,-0.0255 0.01406,-0.046 0,-0.0433 0.08106,-0.164 0.174643,-0.26018 0.03578,-0.0368 0.06782,-0.0669 0.07118,-0.0669 0.0034,0 0.03428,-0.019 0.06869,-0.0422 0.03441,-0.0232 0.07115,-0.0427 0.08164,-0.0433 0.01049,-5.7e-4 0.03807,-0.0129 0.0613,-0.0275 0.05352,-0.0335 0.161189,-0.0841 0.179082,-0.0841 0.0075,0 0.03045,-0.009 0.051,-0.0197 0.02056,-0.0109 0.07854,-0.0305 0.128856,-0.0436 0.05032,-0.0132 0.117041,-0.0328 0.148266,-0.0436 0.03122,-0.0108 0.06955,-0.0197 0.08516,-0.0197 0.01561,0 0.0344,-0.005 0.04176,-0.0123 0.0074,-0.007 0.06721,-0.0165 0.133015,-0.0217 0.108654,-0.009 0.117059,-0.008 0.09149,0.0118 -0.01549,0.0117 -0.04203,0.0215 -0.05899,0.0217 -0.01695,2.3e-4 -0.03476,0.007 -0.03954,0.0145 -0.0048,0.008 -0.02401,0.0141 -0.04271,0.0141 -0.01871,0 -0.0755,0.019 -0.126205,0.0422 -0.05071,0.0232 -0.09941,0.0422 -0.108228,0.0422 -0.02473,0 -0.124021,0.0463 -0.124021,0.0579 0,0.006 -0.01892,0.0144 -0.04207,0.0195 -0.02315,0.005 -0.04568,0.0151 -0.05009,0.0222 -0.0044,0.007 -0.02053,0.013 -0.0358,0.013 -0.01528,0 -0.03141,0.009 -0.03586,0.0211 -0.0044,0.0116 -0.0185,0.0216 -0.03123,0.0221 -0.02297,10e-4 -0.03725,0.009 -0.157933,0.0905 -0.121259,0.0816 -0.168682,0.12396 -0.229326,0.20463 -0.07849,0.10441 -0.100747,0.18605 -0.07253,0.26601 0.0365,0.10346 0.218757,0.31056 0.2733,0.31056 0.0085,0 0.01558,0.007 0.01558,0.0145 0,0.008 0.01108,0.0185 0.02464,0.0233 0.01355,0.005 0.03433,0.017 0.04619,0.0271 0.04321,0.0368 0.290335,0.15645 0.372569,0.18035 0.04645,0.0135 0.09396,0.0304 0.105568,0.0375 0.04302,0.0264 0.09352,0.0436 0.168911,0.0575 0.04258,0.008 0.09642,0.0227 0.119642,0.0329 0.02324,0.0102 0.06756,0.025 0.09853,0.0328 0.314075,0.0792 0.47213,0.10712 0.703789,0.12425 0.05419,0.004 0.105026,0.0126 0.11296,0.0192 0.02124,0.0175 0.117874,0.0262 0.478226,0.0429 0.342723,0.0158 0.970278,-0.003 1.083836,-0.0326 0.03097,-0.008 0.10381,-0.0174 0.161872,-0.0207 0.05806,-0.003 0.111585,-0.0119 0.118941,-0.0191 0.0074,-0.007 0.04536,-0.0134 0.08445,-0.0139 0.07742,-9.9e-4 0.224825,-0.0285 0.241386,-0.0451 0.0057,-0.006 0.02818,-0.0103 0.05002,-0.0103 0.06402,0 0.269021,-0.0504 0.314561,-0.0774 0.0155,-0.009 0.0583,-0.0207 0.0951,-0.0257 0.0853,-0.0115 0.20753,-0.0512 0.20753,-0.0674 0,-0.007 0.0134,-0.0125 0.0296,-0.0125 0.0255,0 0.16346,-0.0568 0.24111,-0.0993 0.0134,-0.007 0.0333,-0.0134 0.044,-0.0134 0.0108,0 0.0283,-0.0105 0.0389,-0.0234 0.0106,-0.0129 0.0528,-0.0382 0.0937,-0.0563 0.0409,-0.0181 0.0778,-0.0418 0.082,-0.0528 0.004,-0.0109 0.0218,-0.0234 0.0392,-0.0277 0.0392,-0.01 0.20568,-0.1811 0.20568,-0.21158 0,-0.0123 0.006,-0.0223 0.0141,-0.0223 0.008,0 0.0143,-0.0111 0.0145,-0.0246 2.4e-4,-0.0135 0.01,-0.0369 0.0211,-0.0519 0.0532,-0.0703 -0.0134,-0.22015 -0.15799,-0.35577 -0.0519,-0.0486 -0.0996,-0.0884 -0.1062,-0.0884 -0.007,0 -0.0239,-0.0111 -0.0385,-0.0246 -0.0147,-0.0135 -0.0571,-0.0405 -0.0944,-0.0598 -0.0373,-0.0194 -0.071,-0.0391 -0.0748,-0.0439 -0.004,-0.005 -0.0387,-0.0226 -0.0774,-0.0396 -0.0387,-0.0169 -0.0894,-0.0393 -0.11261,-0.0496 -0.0792,-0.0352 -0.11263,-0.0486 -0.23225,-0.093 -0.0658,-0.0244 -0.13231,-0.0495 -0.14779,-0.0556 -0.0155,-0.006 -0.0535,-0.0209 -0.0845,-0.0328 -0.056,-0.0215 -0.05567,-0.0216 0.0633,-0.0136 0.0658,0.004 0.12566,0.0135 0.13301,0.0203 0.007,0.007 0.0345,0.0123 0.0603,0.0123 0.0258,0 0.061,0.009 0.0781,0.0192 0.0172,0.0106 0.0787,0.0302 0.13675,0.0435 0.0581,0.0133 0.143,0.0427 0.18875,0.0652 0.0457,0.0225 0.0918,0.041 0.10233,0.041 0.0105,0 0.0428,0.0144 0.0716,0.0321 0.0289,0.0176 0.0776,0.0446 0.1083,0.0598 0.0588,0.0293 0.30314,0.25373 0.30314,0.2785 0,0.008 0.0111,0.0267 0.0246,0.0417 0.0207,0.0229 0.0246,0.0553 0.0246,0.2022 0,0.11337 -0.005,0.17852 -0.0157,0.18503 -0.009,0.005 -0.0295,0.0373 -0.0464,0.0707 -0.0401,0.0791 -0.19536,0.23518 -0.31087,0.31252 -0.0503,0.0337 -0.0936,0.0665 -0.0962,0.0728 -0.003,0.006 -0.0131,0.0115 -0.0235,0.0115 -0.0242,0 -0.10533,0.046 -0.10545,0.0598 -4e-5,0.006 -0.007,0.0106 -0.0162,0.0106 -0.009,0 -0.0755,0.0285 -0.14804,0.0633 -0.0726,0.0348 -0.14374,0.0633 -0.15814,0.0633 -0.0144,0 -0.0341,0.01 -0.0437,0.0211 -0.01,0.0116 -0.0313,0.0211 -0.0482,0.0211 -0.0169,0 -0.0367,0.005 -0.044,0.0115 -0.007,0.006 -0.0482,0.0198 -0.0908,0.03 -0.0426,0.0102 -0.0837,0.0223 -0.0915,0.0271 -0.0316,0.0193 -0.114996,0.0436 -0.15049,0.0438 -0.02083,8e-5 -0.04179,0.007 -0.04658,0.0143 -0.0048,0.008 -0.02476,0.0141 -0.0444,0.0141 -0.01963,0 -0.05252,0.009 -0.07307,0.0198 -0.03393,0.018 -0.113117,0.0315 -0.362646,0.0616 -0.04729,0.006 -0.0948,0.0177 -0.105567,0.0266 -0.01948,0.0162 -0.05985,0.0205 -0.420734,0.045 -0.220228,0.015 -0.934963,0.0153 -1.161254,5.6e-4 z"
         style="opacity:1;fill:#0051df;fill-opacity:1;stroke:#0004ff;stroke-width:0.09999999;stroke-miterlimit:4;stroke-dasharray:none;stroke-opacity:1" />
    </g>
    <rect
       style="opacity:1;fill:#009eff;fill-opacity:1;stroke:#0004ff;stroke-width:0.30000001;stroke-miterlimit:4;stroke-dasharray:none;stroke-opacity:1"
       id="rect831"
       width="6.1272779"
       height="8.0257025"
       x="105.18366"
       y="111.53513" />
    <text
       xml:space="preserve"
       style="font-style:normal;font-variant:normal;font-weight:normal;font-stretch:normal;font-size:10.58333302px;line-height:1.25;font-family:Uroob;-inkscape-font-specification:Uroob;text-align:center;letter-spacing:0px;word-spacing:0px;text-anchor:middle;fill:#0044ff;fill-opacity:1;stroke:none;stroke-width:0.26458332"
       x="107.9915"
       y="118.34438"
       id="text3244"><tspan
         sodipodi:role="line"
         id="tspan3242"
         x="107.9915"
         y="118.34438"
         style="fill:#0044ff;fill-opacity:1;stroke-width:0.26458332">9</tspan></text>
    <flowRoot
       xml:space="preserve"
       id="flowRoot4135"
       style="fill:black;fill-opacity:1;stroke:none;font-family:STIXIntegralsSm;font-style:normal;font-weight:normal;font-size:40px;line-height:1.25;letter-spacing:0px;word-spacing:0px;-inkscape-font-specification:STIXIntegralsSm;font-stretch:normal;font-variant:normal"><flowRegion
         id="flowRegion4137"><rect
           id="rect4139"
           width="107.07617"
           height="83.590126"
           x="330.31989"
           y="396.7251" /></flowRegion><flowPara
         id="flowPara4141" /></flowRoot>    <g
       id="g4203">
      <path
         inkscape:transform-center-x="-1.2509835e-06"
         d="m 55.723446,116.59022 0,7.9788 -6.909851,3.98941 -6.909851,-3.98941 0,-7.9788 6.909851,-3.98941 z"
         inkscape:randomized="0"
         inkscape:rounded="0"
         inkscape:flatsided="true"
         sodipodi:arg2="0"
         sodipodi:arg1="-0.52359878"
         sodipodi:r2="6.9098506"
         sodipodi:r1="7.9788089"
         sodipodi:cy="120.57962"
         sodipodi:cx="48.813593"
         sodipodi:sides="6"
         id="path1277-9"
         style="opacity:1;fill:url(#linearGradient2723);fill-opacity:1;stroke:#0004ff;stroke-width:0.30000001;stroke-miterlimit:4;stroke-dasharray:none;stroke-opacity:1"
         sodipodi:type="star" />
      <path
         inkscape:connector-curvature="0"
         id="path1301-3"
         d="m 47.905276,123.23492 c -1.333547,-0.58063 -1.946189,-2.14835 -1.420933,-3.63612 0.157354,-0.44568 0.641275,-1.39406 1.075375,-2.10748 0.434101,-0.71344 0.928052,-1.64954 1.097667,-2.08022 l 0.30839,-0.78305 0.226689,0.65028 c 0.124682,0.35765 0.616884,1.29712 1.093792,2.0877 1.205543,1.99845 1.417787,2.59717 1.297871,3.66109 -0.116411,1.03278 -0.697281,1.79132 -1.698417,2.21789 -0.794447,0.33852 -1.184347,0.33652 -1.980434,-0.0107 z m -0.06297,-1.97273 c 0.114004,-1.40465 0.205554,-1.93653 0.48673,-2.82766 0.1798,-0.56985 0.362233,-1.149 0.405394,-1.28697 0.04317,-0.13796 0.01355,-0.25029 -0.06575,-0.24956 -0.202353,0.002 -1.569391,2.58845 -1.732113,3.27733 -0.07392,0.31296 -0.07951,0.74199 -0.01248,0.95339 0.134503,0.42376 0.885731,0.53297 0.918154,0.13351 z"
         style="opacity:1;fill:#0051df;fill-opacity:1;stroke:#0004ff;stroke-width:0.17824382;stroke-miterlimit:4;stroke-dasharray:none;stroke-opacity:1" />
      <path
         inkscape:connector-curvature="0"
         id="path1303-6"
         d="m 48.334384,125.0159 c -0.02421,-0.0143 -0.171007,-0.0355 -0.32616,-0.0474 -0.451878,-0.0348 -0.780007,-0.0768 -0.834072,-0.10695 -0.04912,-0.0273 -0.123469,-0.0463 -0.376335,-0.0966 -0.110939,-0.0221 -0.191332,-0.0517 -0.34464,-0.12691 -0.02396,-0.0125 -0.06021,-0.0214 -0.08055,-0.0214 -0.07255,0 -0.446298,-0.21533 -0.579606,-0.33394 -0.147105,-0.13083 -0.26222,-0.32782 -0.26222,-0.44864 0,-0.1335 0.13698,-0.3493 0.279659,-0.44051 0.07016,-0.0449 0.137551,-0.0815 0.14976,-0.0815 0.0123,0 0.02219,-0.0107 0.02219,-0.0251 0,-0.0143 0.03149,-0.0251 0.06996,-0.0251 0.0385,0 0.114255,-0.0226 0.168387,-0.0501 0.05413,-0.0276 0.144021,-0.0494 0.199749,-0.0485 l 0.101332,0.002 -0.100387,0.0447 c -0.28241,0.12584 -0.634855,0.42072 -0.643712,0.5386 -0.01159,0.15364 0.02911,0.21145 0.254864,0.36274 0.180586,0.12103 0.526367,0.25467 0.658895,0.25467 0.03616,0 0.0727,0.0107 0.08124,0.0251 0.0086,0.0143 0.05476,0.0251 0.102722,0.0251 0.04795,0 0.112222,0.016 0.142773,0.0353 0.06251,0.0397 0.480758,0.0925 0.858011,0.10837 0.137765,0.005 0.26563,0.0232 0.284135,0.0385 0.05002,0.0415 1.223801,0.057 1.447436,0.0191 0.09659,-0.016 0.305465,-0.0389 0.464151,-0.0501 0.346976,-0.0244 0.836876,-0.0884 0.940851,-0.12299 0.04137,-0.0143 0.126072,-0.0383 0.188168,-0.0545 0.143647,-0.0376 0.242804,-0.0708 0.342494,-0.11443 0.04349,-0.0191 0.09258,-0.0348 0.109121,-0.0348 0.107891,0 0.425908,-0.22876 0.489809,-0.35235 0.03173,-0.0615 0.03155,-0.0813 -0.0036,-0.16274 -0.04902,-0.11746 -0.266742,-0.32758 -0.404149,-0.39018 -0.05784,-0.0264 -0.112578,-0.0599 -0.121669,-0.0747 -0.0091,-0.0143 -0.04647,-0.039 -0.08306,-0.0542 -0.05836,-0.0241 -0.06059,-0.0289 -0.01811,-0.0388 0.06014,-0.0143 0.364632,0.0841 0.516048,0.1663 0.229437,0.12459 0.351017,0.29745 0.35116,0.49929 5.3e-5,0.0726 -0.0089,0.15169 -0.02121,0.17558 -0.07843,0.16024 -0.113541,0.20539 -0.233357,0.29903 -0.07379,0.0578 -0.230205,0.15205 -0.347497,0.20983 -0.117284,0.0577 -0.232865,0.11497 -0.256824,0.12709 -0.02396,0.0125 -0.06574,0.0223 -0.09285,0.0223 -0.02707,0 -0.0583,0.0143 -0.06934,0.0337 -0.01105,0.0185 -0.09345,0.0471 -0.183146,0.0636 -0.346312,0.0635 -0.381975,0.072 -0.39773,0.0952 -0.01711,0.0255 -0.379363,0.0718 -0.849526,0.10872 -0.154733,0.0125 -0.303579,0.0341 -0.330785,0.0487 -0.06552,0.0351 -1.203128,0.0344 -1.263462,-6.9e-4 z"
         style="opacity:1;fill:#0051df;fill-opacity:1;stroke:#0004ff;stroke-width:0.17824382;stroke-miterlimit:4;stroke-dasharray:none;stroke-opacity:1" />
      <path
         inkscape:connector-curvature="0"
         id="path1305-0"
         d="m 47.932681,126.19495 c -0.523482,-0.0342 -0.702612,-0.0542 -0.737382,-0.082 -0.01916,-0.016 -0.103863,-0.036 -0.188174,-0.0458 -0.331927,-0.0385 -0.531867,-0.0734 -0.579797,-0.10107 -0.02761,-0.016 -0.09534,-0.0374 -0.150545,-0.048 -0.05518,-0.0107 -0.145518,-0.0305 -0.200715,-0.0444 -0.0552,-0.0143 -0.134235,-0.0324 -0.175623,-0.0413 -0.04142,-0.009 -0.111064,-0.0319 -0.154805,-0.0515 -0.04376,-0.0196 -0.117124,-0.0421 -0.163075,-0.0499 -0.0844,-0.0143 -0.157122,-0.0406 -0.271713,-0.0979 -0.03453,-0.0178 -0.121135,-0.0503 -0.192513,-0.0736 -0.07139,-0.0232 -0.143326,-0.0587 -0.159884,-0.0786 -0.01658,-0.02 -0.04577,-0.0362 -0.06499,-0.0362 -0.01921,0 -0.05451,-0.0107 -0.07846,-0.0251 -0.02396,-0.0143 -0.0718,-0.0364 -0.106287,-0.0501 -0.03451,-0.0143 -0.08479,-0.0392 -0.111759,-0.0565 -0.02697,-0.0178 -0.145518,-0.0929 -0.263441,-0.16809 -0.117926,-0.0752 -0.293432,-0.21628 -0.390024,-0.3136 -0.172896,-0.17414 -0.338708,-0.43752 -0.338708,-0.53789 0,-0.0276 -0.01123,-0.057 -0.02506,-0.0656 -0.03271,-0.0201 -0.03271,-0.28088 0,-0.30107 0.01373,-0.009 0.02506,-0.0455 0.02506,-0.082 0,-0.0772 0.144485,-0.29232 0.311291,-0.46376 0.06377,-0.0656 0.120885,-0.11924 0.126874,-0.11924 0.0061,0 0.0611,-0.0339 0.122435,-0.0752 0.06133,-0.0414 0.126821,-0.0761 0.145519,-0.0772 0.0187,-0.001 0.06786,-0.023 0.109263,-0.049 0.0954,-0.0597 0.28731,-0.1499 0.319203,-0.1499 0.01337,0 0.05428,-0.0161 0.0909,-0.0351 0.03665,-0.0194 0.139993,-0.0544 0.229678,-0.0777 0.08969,-0.0235 0.208618,-0.0585 0.264275,-0.0777 0.05565,-0.0192 0.123969,-0.0351 0.151792,-0.0351 0.02782,0 0.06132,-0.009 0.07444,-0.0219 0.01319,-0.0125 0.119798,-0.0294 0.237091,-0.0387 0.193669,-0.016 0.208651,-0.0143 0.163075,0.021 -0.02761,0.0208 -0.07492,0.0383 -0.105146,0.0387 -0.03021,4.1e-4 -0.06196,0.0125 -0.07048,0.0258 -0.0086,0.0143 -0.0428,0.0251 -0.07613,0.0251 -0.03335,0 -0.134574,0.0339 -0.224953,0.0752 -0.09039,0.0413 -0.177192,0.0752 -0.19291,0.0752 -0.04408,0 -0.221059,0.0825 -0.221059,0.10321 0,0.0107 -0.03372,0.0257 -0.07499,0.0348 -0.04126,0.009 -0.08142,0.0269 -0.08928,0.0396 -0.0078,0.0125 -0.03659,0.0232 -0.06381,0.0232 -0.02724,0 -0.05599,0.016 -0.06392,0.0376 -0.0078,0.0207 -0.03298,0.0385 -0.05567,0.0394 -0.04094,0.002 -0.0664,0.016 -0.281506,0.16131 -0.216137,0.14545 -0.300665,0.22095 -0.408759,0.36474 -0.139904,0.1861 -0.179576,0.33162 -0.129281,0.47415 0.06506,0.18441 0.389921,0.55355 0.487141,0.55355 0.01515,0 0.02777,0.0125 0.02777,0.0258 0,0.0143 0.01975,0.033 0.04392,0.0415 0.02415,0.009 0.06119,0.0303 0.08233,0.0483 0.07702,0.0656 0.517505,0.27886 0.664082,0.32146 0.08279,0.0241 0.167478,0.0542 0.188168,0.0668 0.07668,0.0471 0.166694,0.0777 0.301074,0.10249 0.0759,0.0143 0.171862,0.0405 0.213254,0.0587 0.04142,0.0182 0.120422,0.0446 0.175624,0.0585 0.559819,0.14117 0.841542,0.19094 1.25446,0.22147 0.09659,0.007 0.187203,0.0225 0.201344,0.0342 0.03786,0.0312 0.210104,0.0467 0.852409,0.0765 0.610882,0.0282 1.729461,-0.005 1.931871,-0.0581 0.0552,-0.0143 0.185035,-0.031 0.288527,-0.0369 0.103488,-0.005 0.198893,-0.0212 0.212005,-0.034 0.01319,-0.0125 0.08085,-0.0239 0.150526,-0.0248 0.137997,-0.002 0.400737,-0.0508 0.430256,-0.0804 0.01016,-0.0107 0.05023,-0.0184 0.08916,-0.0184 0.114111,0 0.479513,-0.0898 0.560685,-0.13796 0.02763,-0.016 0.103916,-0.0369 0.16951,-0.0458 0.152042,-0.0205 0.36991,-0.0913 0.36991,-0.12014 0,-0.0125 0.02388,-0.0223 0.05276,-0.0223 0.04545,0 0.291357,-0.10124 0.429764,-0.177 0.02388,-0.0125 0.05936,-0.0239 0.07843,-0.0239 0.01925,0 0.05044,-0.0187 0.06934,-0.0417 0.01889,-0.023 0.09411,-0.0681 0.167014,-0.10035 0.0729,-0.0323 0.138674,-0.0745 0.14616,-0.0941 0.0071,-0.0194 0.03886,-0.0417 0.06987,-0.0494 0.06987,-0.0178 0.366612,-0.3228 0.366612,-0.37713 0,-0.0219 0.01069,-0.0397 0.02513,-0.0397 0.01426,0 0.02549,-0.0198 0.02584,-0.0439 4.28e-4,-0.0241 0.01783,-0.0658 0.03761,-0.0925 0.09483,-0.12531 -0.02388,-0.3924 -0.281608,-0.63414 -0.09251,-0.0866 -0.17753,-0.15757 -0.189295,-0.15757 -0.01248,0 -0.0426,-0.0198 -0.06862,-0.0438 -0.0262,-0.0241 -0.101778,-0.0722 -0.168263,-0.10659 -0.06649,-0.0346 -0.126553,-0.0697 -0.133326,-0.0782 -0.0071,-0.009 -0.06898,-0.0403 -0.137961,-0.0706 -0.06898,-0.0301 -0.15935,-0.0701 -0.20072,-0.0884 -0.141169,-0.0627 -0.200756,-0.0866 -0.413971,-0.16576 -0.117285,-0.0435 -0.235835,-0.0882 -0.263427,-0.0991 -0.02763,-0.0107 -0.09536,-0.0373 -0.150616,-0.0585 -0.09982,-0.0383 -0.09923,-0.0385 0.112828,-0.0242 0.117285,0.007 0.223981,0.0241 0.237082,0.0362 0.01248,0.0125 0.06149,0.0219 0.107481,0.0219 0.04599,0 0.108729,0.016 0.139209,0.0342 0.03066,0.0189 0.140278,0.0538 0.243748,0.0775 0.10356,0.0237 0.254889,0.0761 0.336436,0.11622 0.08146,0.0401 0.163627,0.0731 0.182396,0.0731 0.01872,0 0.07629,0.0257 0.127623,0.0572 0.05151,0.0314 0.138317,0.0795 0.193038,0.10659 0.104808,0.0522 0.540329,0.45225 0.540329,0.4964 0,0.0143 0.01978,0.0476 0.04385,0.0743 0.0369,0.0408 0.04385,0.0986 0.04385,0.36041 0,0.20208 -0.0089,0.3182 -0.02798,0.32981 -0.01604,0.009 -0.05258,0.0665 -0.0827,0.12601 -0.07148,0.141 -0.348217,0.4192 -0.554107,0.55705 -0.08966,0.0601 -0.166836,0.11853 -0.17147,0.12976 -0.0053,0.0107 -0.02335,0.0205 -0.04189,0.0205 -0.04313,0 -0.187745,0.082 -0.187959,0.10659 -7.1e-5,0.0107 -0.01248,0.0189 -0.02887,0.0189 -0.01604,0 -0.134574,0.0508 -0.263872,0.11282 -0.129405,0.062 -0.256208,0.11283 -0.281875,0.11283 -0.02567,0 -0.06078,0.0178 -0.07789,0.0376 -0.01782,0.0207 -0.05579,0.0376 -0.08591,0.0376 -0.03012,0 -0.06542,0.009 -0.07843,0.0205 -0.01248,0.0107 -0.08591,0.0353 -0.161846,0.0535 -0.07593,0.0182 -0.14919,0.0397 -0.163093,0.0483 -0.05633,0.0344 -0.204973,0.0777 -0.268239,0.0781 -0.03713,1.4e-4 -0.07449,0.0125 -0.08303,0.0255 -0.0086,0.0143 -0.04413,0.0251 -0.07914,0.0251 -0.03499,0 -0.09361,0.016 -0.130243,0.0353 -0.06048,0.0321 -0.201624,0.0562 -0.646394,0.1098 -0.08429,0.0107 -0.168975,0.0315 -0.188167,0.0474 -0.03472,0.0289 -0.106679,0.0365 -0.749932,0.0802 -0.392543,0.0267 -1.666514,0.0273 -2.069864,10e-4 z"
         style="opacity:1;fill:#0051df;fill-opacity:1;stroke:#0004ff;stroke-width:0.17824382;stroke-miterlimit:4;stroke-dasharray:none;stroke-opacity:1" />
      <text
         id="text3244-2"
         y="124.67298"
         x="48.580379"
         style="font-style:normal;font-variant:normal;font-weight:normal;font-stretch:normal;font-size:15.69399738px;line-height:1.25;font-family:Uroob;-inkscape-font-specification:Uroob;text-align:center;letter-spacing:0px;word-spacing:0px;text-anchor:middle;fill:#ffe100;fill-opacity:1;fill-rule:evenodd;stroke:none;stroke-width:0.39234993"
         xml:space="preserve"><tspan
           style="fill:#ffe100;fill-opacity:1;fill-rule:evenodd;stroke-width:0.39234993"
           y="124.67298"
           x="48.580379"
           id="tspan3242-6"
           sodipodi:role="line">9</tspan></text>
    </g>
  </g>
</svg>
