<?xml version="1.0" encoding="UTF-8" standalone="no"?>
<!-- Created with Inkscape (http://www.inkscape.org/) -->

<svg
   xmlns:dc="http://purl.org/dc/elements/1.1/"
   xmlns:cc="http://creativecommons.org/ns#"
   xmlns:rdf="http://www.w3.org/1999/02/22-rdf-syntax-ns#"
   xmlns:svg="http://www.w3.org/2000/svg"
   xmlns="http://www.w3.org/2000/svg"
   xmlns:sodipodi="http://sodipodi.sourceforge.net/DTD/sodipodi-0.dtd"
   xmlns:inkscape="http://www.inkscape.org/namespaces/inkscape"
   width="976.88"
   height="877.41"
   version="1.1"
   viewBox="0 0 258.47 232.15"
   id="svg408"
   sodipodi:docname="startofmars_copy.svg"
   inkscape:version="0.92.3 (unknown)">
  <metadata
     id="metadata414">
    <rdf:RDF>
      <cc:Work
         rdf:about="">
        <dc:format>image/svg+xml</dc:format>
        <dc:type
           rdf:resource="http://purl.org/dc/dcmitype/StillImage" />
        <dc:title></dc:title>
      </cc:Work>
    </rdf:RDF>
  </metadata>
  <defs
     id="defs412" />
  <sodipodi:namedview
     pagecolor="#ffffff"
     bordercolor="#666666"
     borderopacity="1"
     objecttolerance="10"
     gridtolerance="10"
     guidetolerance="10"
     inkscape:pageopacity="0"
     inkscape:pageshadow="2"
     inkscape:window-width="1853"
     inkscape:window-height="1025"
     id="namedview410"
     showgrid="false"
     inkscape:zoom="0.53794693"
     inkscape:cx="509.10166"
     inkscape:cy="611.81913"
     inkscape:window-x="67"
     inkscape:window-y="27"
     inkscape:window-maximized="1"
     inkscape:current-layer="svg408" />
  <g
     transform="matrix(.39316 0 0 .39316 42.245 -22.132)"
     fill="none"
     stroke="#000"
     stroke-width=".18863"
     id="g406">
    <path
       class="earth 2-iron"
       transform="rotate(90 75.205 98.563)"
       d="m117.37 98.562-21.08 36.512h-42.161l-21.08-36.512 21.08-36.512h42.161z"
       id="path284" />
    <path
       class="ocean 2-iron"
       transform="rotate(90 161.59 121.71)"
       d="m180.61 135.07-21.08 36.512h-42.161l-21.08-36.512 21.08-36.512h42.161z"
       id="path286" />
    <path
       class="earth"
       transform="rotate(90 184.74 208.1)"
       d="m117.37 171.59-21.08 36.512h-42.161l-21.08-36.512 21.08-36.512h42.161z"
       id="path288" />
    <path
       class="ocean 1-card"
       transform="rotate(90 221.25 244.61)"
       d="m117.37 171.59-21.08 36.512h-42.161l-21.08-36.512 21.08-36.512h42.161z"
       id="path290" />
    <path
       class="ocean"
       transform="rotate(90 257.77 281.12)"
       d="m117.37 171.59-21.08 36.512h-42.161l-21.08-36.512 21.08-36.512h42.161z"
       id="path292" />
    <path
       class="earth"
       transform="rotate(90 25.328 111.93)"
       d="m117.37 98.562-21.08 36.512h-42.161l-21.08-36.512 21.08-36.512h42.161z"
       id="path294" />
    <path
       class="earth 1-iron tharsis-tholus"
       transform="rotate(90 111.72 135.07)"
       d="m180.61 135.07-21.08 36.512h-42.161l-21.08-36.512 21.08-36.512h42.161z"
       id="path296" />
    <path
       class="earth"
       transform="rotate(90 134.86 221.46)"
       d="m117.37 171.59-21.08 36.512h-42.161l-21.08-36.512 21.08-36.512h42.161z"
       id="path298" />
    <path
       class="earth"
       transform="rotate(90 171.38 257.98)"
       d="m117.37 171.59-21.08 36.512h-42.161l-21.08-36.512 21.08-36.512h42.161z"
       id="path300" />
    <path
       class="earth"
       transform="rotate(90 207.89 294.49)"
       d="m117.37 171.59-21.08 36.512h-42.161l-21.08-36.512 21.08-36.512h42.161z"
       id="path302" />
    <path
       class="ocean 2-card"
       transform="rotate(90 244.4 331)"
       d="m117.37 171.59-21.08 36.512h-42.161l-21.08-36.512 21.08-36.512h42.161z"
       id="path304" />
    <path
       class="earth 1-card ascraeus-mons"
       transform="rotate(90 -24.549 125.29)"
       d="m117.37 98.562-21.08 36.512h-42.161l-21.08-36.512 21.08-36.512h42.161z"
       id="path306" />
    <path
       class="earth"
       transform="rotate(90 61.84 148.44)"
       d="m180.61 135.07-21.08 36.512h-42.161l-21.08-36.512 21.08-36.512h42.161z"
       id="path308" />
    <path
       class="earth"
       transform="rotate(90 84.988 234.83)"
       d="m117.37 171.59-21.08 36.512h-42.161l-21.08-36.512 21.08-36.512h42.161z"
       id="path310" />
    <path
       class="earth"
       transform="rotate(90 121.5 271.34)"
       d="m117.37 171.59-21.08 36.512h-42.161l-21.08-36.512 21.08-36.512h42.161z"
       id="path312" />
    <path
       class="earth"
       transform="rotate(90 158.01 307.85)"
       d="m117.37 171.59-21.08 36.512h-42.161l-21.08-36.512 21.08-36.512h42.161z"
       id="path314" />
    <path
       class="earth"
       transform="rotate(90 194.53 344.37)"
       d="m117.37 171.59-21.08 36.512h-42.161l-21.08-36.512 21.08-36.512h42.161z"
       id="path316" />
    <path
       class="earth 1-iron"
       transform="rotate(90 231.04 380.88)"
       d="m117.37 171.59-21.08 36.512h-42.161l-21.08-36.512 21.08-36.512h42.161z"
       id="path318" />
    <path
       class="earth 1-plant 1-titanium pavonis-mons"
       transform="rotate(90 -74.426 138.66)"
       d="m117.37 98.562-21.08 36.512h-42.161l-21.08-36.512 21.08-36.512h42.161z"
       id="path320" />
    <path
       class="earth 1-plant"
       transform="rotate(90 11.963 161.8)"
       d="m180.61 135.07-21.08 36.512h-42.161l-21.08-36.512 21.08-36.512h42.161z"
       id="path322" />
    <path
       class="earth 1-plant"
       transform="rotate(90 35.111 248.19)"
       d="m117.37 171.59-21.08 36.512h-42.161l-21.08-36.512 21.08-36.512h42.161z"
       id="path324" />
    <path
       class="earth 1-plant"
       transform="rotate(90 71.624 284.71)"
       d="m117.37 171.59-21.08 36.512h-42.161l-21.08-36.512 21.08-36.512h42.161z"
       id="path326" />
    <path
       class="earth 2-plant"
       transform="rotate(90 108.14 321.22)"
       d="m117.37 171.59-21.08 36.512h-42.161l-21.08-36.512 21.08-36.512h42.161z"
       id="path328" />
    <path
       class="earth 1-plant"
       transform="rotate(90 108.14 321.22)"
       d="m117.37 98.562-21.08 36.512h-42.161l-21.08-36.512 21.08-36.512h42.161z"
       id="path330" />
    <path
       class="earth 1-plant"
       transform="rotate(90 194.53 344.37)"
       d="m180.61 135.07-21.08 36.512h-42.161l-21.08-36.512 21.08-36.512h42.161z"
       id="path332" />
    <path
       class="ocean 2-plant"
       transform="rotate(90 217.67 430.75)"
       d="m117.37 171.59-21.08 36.512h-42.161l-21.08-36.512 21.08-36.512h42.161z"
       id="path334" />
    <path
       class="earth 2-plant arsia-mons"
       transform="rotate(90 -124.3 152.02)"
       d="m117.37 98.562-21.08 36.512h-42.161l-21.08-36.512 21.08-36.512h42.161z"
       id="path336" />
    <path
       class="earth 2-plant"
       transform="rotate(90 -37.913 175.17)"
       d="m180.61 135.07-21.08 36.512h-42.161l-21.08-36.512 21.08-36.512h42.161z"
       id="path338" />
    <path
       class="earth 1-plant noctis-city"
       transform="rotate(90 -14.765 261.56)"
       d="m117.37 171.59-21.08 36.512h-42.161l-21.08-36.512 21.08-36.512h42.161z"
       id="path340" />
    <path
       class="ocean 2-plant"
       transform="rotate(90 21.747 298.07)"
       d="m117.37 171.59-21.08 36.512h-42.161l-21.08-36.512 21.08-36.512h42.161z"
       id="path342" />
    <path
       class="ocean 2-plant"
       transform="rotate(90 58.259 334.58)"
       d="m117.37 171.59-21.08 36.512h-42.161l-21.08-36.512 21.08-36.512h42.161z"
       id="path344" />
    <path
       class="ocean 2-plant"
       transform="rotate(90 58.259 334.58)"
       d="m117.37 98.562-21.08 36.512h-42.161l-21.08-36.512 21.08-36.512h42.161z"
       id="path346" />
    <path
       class="earth 2-plant"
       transform="rotate(90 144.65 357.73)"
       d="m180.61 135.07-21.08 36.512h-42.161l-21.08-36.512 21.08-36.512h42.161z"
       id="path348" />
    <path
       class="earth 2-plant"
       transform="rotate(90 167.8 444.12)"
       d="m117.37 171.59-21.08 36.512h-42.161l-21.08-36.512 21.08-36.512h42.161z"
       id="path350" />
    <path
       class="earth 2-plant"
       transform="rotate(90 204.31 480.63)"
       d="m117.37 171.59-21.08 36.512h-42.161l-21.08-36.512 21.08-36.512h42.161z"
       id="path352" />
    <path
       class="earth 1-plant"
       transform="rotate(90 -137.67 201.9)"
       d="m117.37 98.562-21.08 36.512h-42.161l-21.08-36.512 21.08-36.512h42.161z"
       id="path354" />
    <path
       class="earth 2-plant"
       transform="rotate(90 -51.278 225.04)"
       d="m180.61 135.07-21.08 36.512h-42.161l-21.08-36.512 21.08-36.512h42.161z"
       id="path356" />
    <path
       class="earth 1-plant"
       transform="rotate(90 -28.13 311.43)"
       d="m117.37 171.59-21.08 36.512h-42.161l-21.08-36.512 21.08-36.512h42.161z"
       id="path358" />
    <path
       class="earth 1-plant"
       transform="rotate(90 8.3825 347.95)"
       d="m117.37 171.59-21.08 36.512h-42.161l-21.08-36.512 21.08-36.512h42.161z"
       id="path360" />
    <path
       class="earth 1-plant"
       transform="rotate(90 44.895 384.46)"
       d="m117.37 171.59-21.08 36.512h-42.161l-21.08-36.512 21.08-36.512h42.161z"
       id="path362" />
    <path
       class="ocean 1-plant"
       transform="rotate(90 44.895 384.46)"
       d="m117.37 98.562-21.08 36.512h-42.161l-21.08-36.512 21.08-36.512h42.161z"
       id="path364" />
    <path
       class="ocean 1-plant"
       transform="rotate(90 131.28 407.61)"
       d="m180.61 135.07-21.08 36.512h-42.161l-21.08-36.512 21.08-36.512h42.161z"
       id="path366" />
    <path
       class="ocean 1-plant"
       transform="rotate(90 154.43 494)"
       d="m117.37 171.59-21.08 36.512h-42.161l-21.08-36.512 21.08-36.512h42.161z"
       id="path368" />
    <path
       class="earth"
       transform="rotate(90 -151.03 251.77)"
       d="m117.37 98.562-21.08 36.512h-42.161l-21.08-36.512 21.08-36.512h42.161z"
       id="path370" />
    <path
       class="earth"
       transform="rotate(90 -64.642 274.92)"
       d="m180.61 135.07-21.08 36.512h-42.161l-21.08-36.512 21.08-36.512h42.161z"
       id="path372" />
    <path
       class="earth"
       transform="rotate(90 -41.494 361.31)"
       d="m117.37 171.59-21.08 36.512h-42.161l-21.08-36.512 21.08-36.512h42.161z"
       id="path374" />
    <path
       class="earth"
       transform="rotate(90 -4.982 397.82)"
       d="m117.37 171.59-21.08 36.512h-42.161l-21.08-36.512 21.08-36.512h42.161z"
       id="path376" />
    <path
       class="earth"
       transform="rotate(90 31.53 434.34)"
       d="m117.37 171.59-21.08 36.512h-42.161l-21.08-36.512 21.08-36.512h42.161z"
       id="path378" />
    <path
       class="earth 1-plant"
       transform="rotate(90 68.043 470.85)"
       d="m117.37 171.59-21.08 36.512h-42.161l-21.08-36.512 21.08-36.512h42.161z"
       id="path380" />
    <path
       class="earth"
       transform="rotate(90 104.56 507.36)"
       d="m117.37 171.59-21.08 36.512h-42.161l-21.08-36.512 21.08-36.512h42.161z"
       id="path382" />
    <path
       class="earth 2-iron"
       transform="rotate(90 -164.4 301.65)"
       d="m117.37 98.562-21.08 36.512h-42.161l-21.08-36.512 21.08-36.512h42.161z"
       id="path384" />
    <path
       class="earth"
       transform="rotate(90 -78.007 324.8)"
       d="m180.61 135.07-21.08 36.512h-42.161l-21.08-36.512 21.08-36.512h42.161z"
       id="path386" />
    <path
       class="earth"
       transform="rotate(90 -54.859 411.19)"
       d="m117.37 171.59-21.08 36.512h-42.161l-21.08-36.512 21.08-36.512h42.161z"
       id="path388" />
    <path
       class="earth 1-card"
       transform="rotate(90 -18.346 447.7)"
       d="m117.37 171.59-21.08 36.512h-42.161l-21.08-36.512 21.08-36.512h42.161z"
       id="path390" />
    <path
       class="earth"
       transform="rotate(90 18.166 484.21)"
       d="m117.37 171.59-21.08 36.512h-42.161l-21.08-36.512 21.08-36.512h42.161z"
       id="path392" />
    <path
       class="earth 1-titanium"
       transform="rotate(90 54.678 520.72)"
       d="m117.37 171.59-21.08 36.512h-42.161l-21.08-36.512 21.08-36.512h42.161z"
       id="path394" />
    <path
       class="earth 1-iron"
       transform="rotate(90 -177.76 351.53)"
       d="m117.37 98.562-21.08 36.512h-42.161l-21.08-36.512 21.08-36.512h42.161z"
       id="path396" />
    <path
       class="earth 2-iron"
       transform="rotate(90 -91.371 374.68)"
       d="m180.61 135.07-21.08 36.512h-42.161l-21.08-36.512 21.08-36.512h42.161z"
       id="path398" />
    <path
       class="earth"
       transform="rotate(90 -68.223 461.06)"
       d="m117.37 171.59-21.08 36.512h-42.161l-21.08-36.512 21.08-36.512h42.161z"
       id="path400" />
    <path
       class="earth"
       transform="rotate(90 -31.711 497.58)"
       d="m117.37 171.59-21.08 36.512h-42.161l-21.08-36.512 21.08-36.512h42.161z"
       id="path402" />
    <path
       class="ocean 2-titanium"
       transform="rotate(90 4.8015 534.09)"
       d="m117.37 171.59-21.08 36.512h-42.161l-21.08-36.512 21.08-36.512h42.161z"
       id="path404" />
  </g>
</svg>
